PathFileType	4	(X/Y/Z)	C:/Users/beibeiliu/ov580/test_trc/User2\sequence.9_training_dense_right.trc
DataRate	CameraRate	NumFrames	NumMarkers	Units	OrigDataRate	OrigDataStartFrame	OrigNumFrames
120	120	8	19	mm	120	1	54
Frame#	Time	ThumbCMC			ThumbMCP			ThumbIP			ThumbTip			IndexMCP			IndexPIP			IndexTip			MiddleMCP			MiddlePIP			MiddleTip			RingMCP			RingPIP			RingTip			PinkyMCP			PinkyPIP			PinkyTip			BackHand1			BackHand2			BackHand3	
		X0	Y0	Z0	X1	Y1	Z1	X2	Y2	Z2	X3	Y3	Z3	X4	Y4	Z4	X5	Y5	Z5	X6	Y6	Z6	X7	Y7	Z7	X8	Y8	Z8	X9	Y9	Z9	X10	Y10	Z10	X11	Y11	Z11	X12	Y12	Z12	X13	Y13	Z13	X14	Y14	Z14	X15	Y15	Z15	X16	Y16	Z16	X17	Y17	Z17	X18	Y18	Z18	
0	0	127.902	50.2627	-22.2975	99.419	59.5236	-50.8661	85.0679	51.4242	-84.2042	83.1615	34.946	-106.145	151.373	48.1753	-101.476	124.195	40.5827	-122.725	96.7581	31.4198	-123.635	175.642	29.2614	-105.274	170.339	35.5906	-136.625	164.897	33.8872	-168.767	178.164	3.38224	-100.726	179.578	2.14647	-129.57	178.512	-0.024621	-159.434	170.272	-18.5695	-87.5774	174.008	-23.7896	-113.664	179.402	-27.7598	-134.701	175.429	1.19373	-42.7359	175.355	0.929044	-8.02402	168.616	35.3917	-23.9711	
1	0.00833333	111.601	48.0425	-20.6207	86.4803	45.95	-42.7316	74.3581	39.8305	-79.8604	72.331	28.1026	-103.333	134.256	61.8204	-93.5901	110.968	50.7527	-117.914	90.3807	24.4183	-119.01	161.95	55.829	-96.8078	156.34	62.7257	-133.362	152.048	62.4961	-163.971	174.768	33.4201	-98.5662	179.528	30.1112	-123.3	176.12	37.2857	-154.785	175.753	5.85231	-85.4577	183.196	6.6362	-113.682	186.69	11.8049	-137.273	173.473	19.874	-40.3086	174.06	15.1449	-6.64605	156.535	48.9452	-20.796	
2	0.0166667	97.6691	38.3433	-11.4931	77.4705	31.3308	-42.268	65.3558	25.772	-77.2464	72.6824	17.8485	-101.565	115.904	68.6121	-86.9279	98.7839	55.7	-110.643	90.5672	23.4629	-117.227	144.467	76.252	-92.7113	138.285	83.801	-123.607	134.448	84.6669	-156.765	167.373	56.4838	-89.8997	168.458	63.4136	-114.163	167.384	69.913	-145.032	177.139	32.8278	-80.7349	184.375	36.7097	-105.648	187.984	45.4772	-127.03	167.888	38.0608	-36.7262	171.992	30.2212	-5.46632	142.35	55.3296	-13.1637	
3	0.025	87.0485	35.8875	-10.1955	66.6889	23.1619	-35.9647	60.4509	16.1034	-74.3376	67.3605	8.59898	-99.6641	97.7028	68.9136	-80.9406	85.2914	47.2498	-108.247	86.3263	16.066	-113.16	130.582	80.3166	-87.8004	122.763	86.9777	-121.695	118.621	87.0196	-151.515	152.451	69.9506	-86.102	155.433	76.8004	-112.958	151.939	83.101	-140.034	168.119	45.9981	-74.8594	174.663	52.0893	-97.9903	181.461	64.0059	-123.654	154.897	52.3802	-31.3727	160.476	40.7512	0.930979	124.015	62.5961	-12.0458	
4	0.0333333	77.5951	33.747	-7.59806	60.3544	17.0464	-31.8016	52.9913	5.97826	-67.4318	62.4005	-2.38644	-93.3399	87.5005	59.4777	-84.0995	76.3134	38.8457	-105.207	80.4802	5.19006	-107.055	114.25	74.5009	-83.7129	107.614	77.619	-121.517	103.441	77.3324	-149.257	140.525	63.2939	-81.5244	141.307	71.8764	-112.985	141.465	77.3532	-140.987	160.006	42.4069	-71.0401	166.569	52.4704	-99.2792	172.489	60.7409	-121.323	145.346	51.3524	-27.1796	154.628	46.063	3.18605	118.504	59.6967	-8.32761	
5	0.0416667	71.7086	29.1707	-5.38329	56.299	10.1053	-26.5689	48.2567	-5.57898	-55.7727	54.8497	-16.0676	-81.8146	76.4335	47.1124	-80.9255	72.6635	21.2325	-102.39	68.0495	-12.8438	-98.1302	107.167	62.448	-85.9529	100.933	62.2931	-119.936	92.9337	58.5338	-148.517	131.354	54.887	-85.1066	136.341	57.5676	-110.969	131.207	59.9798	-138.508	154.315	35.6681	-72.6309	157.115	40.2806	-95.0585	167.75	49.4294	-120.503	141.268	46.4177	-30.3065	144.3	46.1564	1.23411	109.953	57.7055	-12.3799	
6	0.05	69.302	26.4261	-0.0527376	46.923	5.542	-17.4698	36.8756	-14.7014	-48.3379	43.6061	-29.7232	-71.1468	69.842	34.1427	-78.4612	58.6829	5.77664	-94.4944	64.5349	-26.0554	-87.8837	96.2707	49.32	-86.7859	89.1313	43.5849	-118.882	82.3988	35.4355	-148.985	127.906	39.992	-85.5329	128.962	38.9347	-111.694	125.72	37.5282	-139.253	144.394	22.7604	-68.6196	153.649	22.4563	-96.3763	159.564	27.7968	-121.635	132.677	42.1485	-26.9141	137.712	44.5261	3.53239	102.655	54.0153	-11.8348	
7	0.0583333	67.0746	34.9194	9.71723	41.1215	14.3578	-7.29077	26.9301	-8.25293	-32.4371	29.8697	-27.1596	-55.7054	60.1456	30.1408	-73.3782	48.5863	-1.57605	-83.7231	45.3647	-32.0796	-70.1823	90.4069	35.5136	-87.7692	78.2228	26.2856	-116.785	69.4943	13.0934	-147.353	119.249	22.3622	-85.7871	117.968	16.6468	-111.805	108.999	13.5144	-136.565	135.305	6.97238	-65.5474	137.965	0.963353	-90.9352	145.759	-0.574681	-117.1	128.824	36.2788	-32.1379	139.161	42.3063	2.99252	102.127	55.8382	-9.86836	
